<svg width="682" height="259" viewBox="0 0 682 259" fill="none" xmlns="http://www.w3.org/2000/svg">
    <path
        d="M1 203.723C21.5356 200.423 463.673 201.789 466.913 203.987C466.913 203.987 480.917 219.636 462.197 209.788C443.477 199.93 449.932 159.862 453.161 163.145C456.388 166.43 458.326 176.279 489.956 195.989C521.593 215.697 536.441 213.725 542.894 211.096C549.351 208.47 582.274 165.119 574.531 163.145C566.783 161.178 495.768 140.159 495.768 140.159C495.768 140.159 437.018 4.18904 442.828 0.899795C448.637 -2.3859 588.736 16.6699 595.189 25.8651C601.644 35.0604 675.245 175.624 662.328 175.624C649.42 175.624 592.608 168.402 587.441 159.862C582.274 151.32 557.742 74.4714 574.531 101.404C591.313 128.334 598.418 160.517 597.772 173.659C597.125 186.792 593.251 208.47 593.251 212.407C593.251 216.353 611.971 224.891 608.101 218.321C604.23 211.753 591.962 205.185 588.736 217.664C585.501 230.143 571.948 259.05 577.114 253.791C582.274 248.536 589.379 231.461 589.379 236.711C589.379 241.97 593.896 265.615 594.539 255.108C595.189 244.597 598.418 230.143 599.061 235.4C599.706 240.657 604.23 262.989 603.584 245.251C602.933 227.517 595.189 220.293 598.418 202.559C601.644 184.821 616.495 158.549 606.161 159.206C595.834 159.862 564.843 153.949 546.123 149.353C527.403 144.755 500.933 139.496 497.706 130.958C494.48 122.425 466.069 57.3901 464.138 56.7349C462.197 56.0792 424.108 65.2762 424.108 74.4714C424.108 83.6655 434.439 131.619 447.349 151.977C460.259 172.341 509.328 205.185 520.298 200.591C531.274 195.989 526.108 178.253 522.236 188.106C518.364 197.963 516.426 203.872 535.796 207.157C555.161 210.44 670.239 209.772 681 208.603"
        stroke="white"
        strokeOpacity="0.4"
        strokeMiterlimit="2"
        strokeLinecap="round"
        strokeLinejoin="round"
    />
</svg>
